<mxfile host="app.diagrams.net" modified="2024-04-18T10:01:20.628Z" agent="Mozilla/5.0 (Windows NT 10.0; Win64; x64) AppleWebKit/537.36 (KHTML, like Gecko) Chrome/123.0.0.0 Safari/537.36" etag="youvNwAsOa4IjY1qz4wc" version="24.2.5" type="github">
  <diagram id="C5RBs43oDa-KdzZeNtuy" name="Page-1">
    <mxGraphModel dx="1221" dy="759" grid="1" gridSize="10" guides="1" tooltips="1" connect="1" arrows="1" fold="1" page="1" pageScale="1" pageWidth="827" pageHeight="1169" math="0" shadow="0">
      <root>
        <mxCell id="WIyWlLk6GJQsqaUBKTNV-0" />
        <mxCell id="WIyWlLk6GJQsqaUBKTNV-1" parent="WIyWlLk6GJQsqaUBKTNV-0" />
        <mxCell id="zkfFHV4jXpPFQw0GAbJ--0" value="Canard" style="swimlane;fontStyle=2;align=center;verticalAlign=top;childLayout=stackLayout;horizontal=1;startSize=26;horizontalStack=0;resizeParent=1;resizeLast=0;collapsible=1;marginBottom=0;rounded=0;shadow=0;strokeWidth=1;" parent="WIyWlLk6GJQsqaUBKTNV-1" vertex="1">
          <mxGeometry x="110" y="120" width="160" height="120" as="geometry">
            <mxRectangle x="230" y="140" width="160" height="26" as="alternateBounds" />
          </mxGeometry>
        </mxCell>
        <mxCell id="zkfFHV4jXpPFQw0GAbJ--1" value="Name" style="text;align=left;verticalAlign=top;spacingLeft=4;spacingRight=4;overflow=hidden;rotatable=0;points=[[0,0.5],[1,0.5]];portConstraint=eastwest;" parent="zkfFHV4jXpPFQw0GAbJ--0" vertex="1">
          <mxGeometry y="26" width="160" height="26" as="geometry" />
        </mxCell>
        <mxCell id="zkfFHV4jXpPFQw0GAbJ--2" value="Famille" style="text;align=left;verticalAlign=top;spacingLeft=4;spacingRight=4;overflow=hidden;rotatable=0;points=[[0,0.5],[1,0.5]];portConstraint=eastwest;rounded=0;shadow=0;html=0;" parent="zkfFHV4jXpPFQw0GAbJ--0" vertex="1">
          <mxGeometry y="52" width="160" height="26" as="geometry" />
        </mxCell>
        <mxCell id="zkfFHV4jXpPFQw0GAbJ--3" value="Email Address" style="text;align=left;verticalAlign=top;spacingLeft=4;spacingRight=4;overflow=hidden;rotatable=0;points=[[0,0.5],[1,0.5]];portConstraint=eastwest;rounded=0;shadow=0;html=0;" parent="zkfFHV4jXpPFQw0GAbJ--0" vertex="1">
          <mxGeometry y="78" width="160" height="26" as="geometry" />
        </mxCell>
        <mxCell id="zkfFHV4jXpPFQw0GAbJ--4" value="" style="line;html=1;strokeWidth=1;align=left;verticalAlign=middle;spacingTop=-1;spacingLeft=3;spacingRight=3;rotatable=0;labelPosition=right;points=[];portConstraint=eastwest;" parent="zkfFHV4jXpPFQw0GAbJ--0" vertex="1">
          <mxGeometry y="104" width="160" height="8" as="geometry" />
        </mxCell>
        <mxCell id="zkfFHV4jXpPFQw0GAbJ--6" value="espece2" style="swimlane;fontStyle=0;align=center;verticalAlign=top;childLayout=stackLayout;horizontal=1;startSize=26;horizontalStack=0;resizeParent=1;resizeLast=0;collapsible=1;marginBottom=0;rounded=0;shadow=0;strokeWidth=1;" parent="WIyWlLk6GJQsqaUBKTNV-1" vertex="1">
          <mxGeometry x="10" y="360" width="160" height="90" as="geometry">
            <mxRectangle x="130" y="380" width="160" height="26" as="alternateBounds" />
          </mxGeometry>
        </mxCell>
        <mxCell id="zkfFHV4jXpPFQw0GAbJ--9" value="" style="line;html=1;strokeWidth=1;align=left;verticalAlign=middle;spacingTop=-1;spacingLeft=3;spacingRight=3;rotatable=0;labelPosition=right;points=[];portConstraint=eastwest;" parent="zkfFHV4jXpPFQw0GAbJ--6" vertex="1">
          <mxGeometry y="26" width="160" height="8" as="geometry" />
        </mxCell>
        <mxCell id="zkfFHV4jXpPFQw0GAbJ--10" value="Methode : voler" style="text;align=left;verticalAlign=top;spacingLeft=4;spacingRight=4;overflow=hidden;rotatable=0;points=[[0,0.5],[1,0.5]];portConstraint=eastwest;fontStyle=4" parent="zkfFHV4jXpPFQw0GAbJ--6" vertex="1">
          <mxGeometry y="34" width="160" height="26" as="geometry" />
        </mxCell>
        <mxCell id="zkfFHV4jXpPFQw0GAbJ--11" value="Methode : cancaner" style="text;align=left;verticalAlign=top;spacingLeft=4;spacingRight=4;overflow=hidden;rotatable=0;points=[[0,0.5],[1,0.5]];portConstraint=eastwest;" parent="zkfFHV4jXpPFQw0GAbJ--6" vertex="1">
          <mxGeometry y="60" width="160" height="26" as="geometry" />
        </mxCell>
        <mxCell id="zkfFHV4jXpPFQw0GAbJ--12" value="" style="endArrow=block;endSize=10;endFill=0;shadow=0;strokeWidth=1;rounded=0;curved=0;edgeStyle=elbowEdgeStyle;elbow=vertical;" parent="WIyWlLk6GJQsqaUBKTNV-1" source="zkfFHV4jXpPFQw0GAbJ--6" target="zkfFHV4jXpPFQw0GAbJ--0" edge="1">
          <mxGeometry width="160" relative="1" as="geometry">
            <mxPoint x="90" y="203" as="sourcePoint" />
            <mxPoint x="90" y="203" as="targetPoint" />
          </mxGeometry>
        </mxCell>
        <mxCell id="zkfFHV4jXpPFQw0GAbJ--13" value="Espece 1" style="swimlane;fontStyle=0;align=center;verticalAlign=top;childLayout=stackLayout;horizontal=1;startSize=26;horizontalStack=0;resizeParent=1;resizeLast=0;collapsible=1;marginBottom=0;rounded=0;shadow=0;strokeWidth=1;" parent="WIyWlLk6GJQsqaUBKTNV-1" vertex="1">
          <mxGeometry x="220" y="360" width="160" height="70" as="geometry">
            <mxRectangle x="340" y="380" width="170" height="26" as="alternateBounds" />
          </mxGeometry>
        </mxCell>
        <mxCell id="zkfFHV4jXpPFQw0GAbJ--14" value="Salary" style="text;align=left;verticalAlign=top;spacingLeft=4;spacingRight=4;overflow=hidden;rotatable=0;points=[[0,0.5],[1,0.5]];portConstraint=eastwest;" parent="zkfFHV4jXpPFQw0GAbJ--13" vertex="1">
          <mxGeometry y="26" width="160" height="26" as="geometry" />
        </mxCell>
        <mxCell id="zkfFHV4jXpPFQw0GAbJ--15" value="" style="line;html=1;strokeWidth=1;align=left;verticalAlign=middle;spacingTop=-1;spacingLeft=3;spacingRight=3;rotatable=0;labelPosition=right;points=[];portConstraint=eastwest;" parent="zkfFHV4jXpPFQw0GAbJ--13" vertex="1">
          <mxGeometry y="52" width="160" height="8" as="geometry" />
        </mxCell>
        <mxCell id="zkfFHV4jXpPFQw0GAbJ--16" value="" style="endArrow=block;endSize=10;endFill=0;shadow=0;strokeWidth=1;rounded=0;curved=0;edgeStyle=elbowEdgeStyle;elbow=vertical;" parent="WIyWlLk6GJQsqaUBKTNV-1" source="zkfFHV4jXpPFQw0GAbJ--13" target="zkfFHV4jXpPFQw0GAbJ--0" edge="1">
          <mxGeometry width="160" relative="1" as="geometry">
            <mxPoint x="100" y="373" as="sourcePoint" />
            <mxPoint x="200" y="271" as="targetPoint" />
          </mxGeometry>
        </mxCell>
        <mxCell id="nrB4lIm2vFU0IHgTo4m3-0" value="Simulateur" style="rounded=0;whiteSpace=wrap;html=1;" vertex="1" parent="WIyWlLk6GJQsqaUBKTNV-1">
          <mxGeometry x="450" y="150" width="80" height="30" as="geometry" />
        </mxCell>
        <mxCell id="nrB4lIm2vFU0IHgTo4m3-1" value="Canard" style="rounded=0;whiteSpace=wrap;html=1;" vertex="1" parent="WIyWlLk6GJQsqaUBKTNV-1">
          <mxGeometry x="550" y="150" width="80" height="30" as="geometry" />
        </mxCell>
        <mxCell id="nrB4lIm2vFU0IHgTo4m3-4" value="" style="endArrow=classic;html=1;rounded=0;" edge="1" parent="WIyWlLk6GJQsqaUBKTNV-1">
          <mxGeometry width="50" height="50" relative="1" as="geometry">
            <mxPoint x="490" y="260" as="sourcePoint" />
            <mxPoint x="590" y="260" as="targetPoint" />
          </mxGeometry>
        </mxCell>
        <mxCell id="nrB4lIm2vFU0IHgTo4m3-6" value="Créé un canard" style="text;html=1;align=center;verticalAlign=middle;resizable=0;points=[];autosize=1;strokeColor=none;fillColor=none;" vertex="1" parent="WIyWlLk6GJQsqaUBKTNV-1">
          <mxGeometry x="480" y="260" width="110" height="30" as="geometry" />
        </mxCell>
        <mxCell id="nrB4lIm2vFU0IHgTo4m3-7" value="Colvert" style="rounded=0;whiteSpace=wrap;html=1;" vertex="1" parent="WIyWlLk6GJQsqaUBKTNV-1">
          <mxGeometry x="650" y="150" width="80" height="30" as="geometry" />
        </mxCell>
        <mxCell id="nrB4lIm2vFU0IHgTo4m3-9" value="" style="endArrow=none;dashed=1;html=1;rounded=0;" edge="1" parent="WIyWlLk6GJQsqaUBKTNV-1">
          <mxGeometry width="50" height="50" relative="1" as="geometry">
            <mxPoint x="490" y="520" as="sourcePoint" />
            <mxPoint x="489.5" y="180" as="targetPoint" />
          </mxGeometry>
        </mxCell>
        <mxCell id="nrB4lIm2vFU0IHgTo4m3-10" value="" style="endArrow=none;dashed=1;html=1;rounded=0;" edge="1" parent="WIyWlLk6GJQsqaUBKTNV-1">
          <mxGeometry width="50" height="50" relative="1" as="geometry">
            <mxPoint x="589.5" y="520" as="sourcePoint" />
            <mxPoint x="589" y="180" as="targetPoint" />
          </mxGeometry>
        </mxCell>
        <mxCell id="nrB4lIm2vFU0IHgTo4m3-11" value="" style="endArrow=none;dashed=1;html=1;rounded=0;" edge="1" parent="WIyWlLk6GJQsqaUBKTNV-1">
          <mxGeometry width="50" height="50" relative="1" as="geometry">
            <mxPoint x="690" y="520" as="sourcePoint" />
            <mxPoint x="689.5" y="180" as="targetPoint" />
          </mxGeometry>
        </mxCell>
        <mxCell id="nrB4lIm2vFU0IHgTo4m3-12" value="Créé un Colvert" style="text;html=1;align=center;verticalAlign=middle;resizable=0;points=[];autosize=1;strokeColor=none;fillColor=none;" vertex="1" parent="WIyWlLk6GJQsqaUBKTNV-1">
          <mxGeometry x="580" y="330" width="110" height="30" as="geometry" />
        </mxCell>
        <mxCell id="nrB4lIm2vFU0IHgTo4m3-14" value="Appelle la méthode cancaner()" style="text;html=1;align=center;verticalAlign=middle;resizable=0;points=[];autosize=1;strokeColor=none;fillColor=none;" vertex="1" parent="WIyWlLk6GJQsqaUBKTNV-1">
          <mxGeometry x="550" y="470" width="190" height="30" as="geometry" />
        </mxCell>
        <mxCell id="nrB4lIm2vFU0IHgTo4m3-15" value="Appelle la méthode voler()" style="text;html=1;align=center;verticalAlign=middle;resizable=0;points=[];autosize=1;strokeColor=none;fillColor=none;" vertex="1" parent="WIyWlLk6GJQsqaUBKTNV-1">
          <mxGeometry x="555" y="400" width="160" height="30" as="geometry" />
        </mxCell>
        <mxCell id="nrB4lIm2vFU0IHgTo4m3-17" value="" style="endArrow=classic;html=1;rounded=0;exitX=0.1;exitY=-0.011;exitDx=0;exitDy=0;exitPerimeter=0;" edge="1" parent="WIyWlLk6GJQsqaUBKTNV-1" source="nrB4lIm2vFU0IHgTo4m3-12">
          <mxGeometry width="50" height="50" relative="1" as="geometry">
            <mxPoint x="610" y="330" as="sourcePoint" />
            <mxPoint x="690" y="330" as="targetPoint" />
          </mxGeometry>
        </mxCell>
        <mxCell id="nrB4lIm2vFU0IHgTo4m3-18" value="" style="endArrow=classic;html=1;rounded=0;exitX=0.1;exitY=-0.011;exitDx=0;exitDy=0;exitPerimeter=0;" edge="1" parent="WIyWlLk6GJQsqaUBKTNV-1">
          <mxGeometry width="50" height="50" relative="1" as="geometry">
            <mxPoint x="591" y="470" as="sourcePoint" />
            <mxPoint x="690" y="470" as="targetPoint" />
          </mxGeometry>
        </mxCell>
        <mxCell id="nrB4lIm2vFU0IHgTo4m3-19" value="" style="endArrow=classic;html=1;rounded=0;exitX=0.1;exitY=-0.011;exitDx=0;exitDy=0;exitPerimeter=0;" edge="1" parent="WIyWlLk6GJQsqaUBKTNV-1">
          <mxGeometry width="50" height="50" relative="1" as="geometry">
            <mxPoint x="590" y="404.5" as="sourcePoint" />
            <mxPoint x="689" y="404.5" as="targetPoint" />
          </mxGeometry>
        </mxCell>
        <mxCell id="nrB4lIm2vFU0IHgTo4m3-21" value="Canard" style="swimlane;fontStyle=2;align=center;verticalAlign=top;childLayout=stackLayout;horizontal=1;startSize=26;horizontalStack=0;resizeParent=1;resizeLast=0;collapsible=1;marginBottom=0;rounded=0;shadow=0;strokeWidth=1;" vertex="1" parent="WIyWlLk6GJQsqaUBKTNV-1">
          <mxGeometry x="220" y="740" width="160" height="142" as="geometry">
            <mxRectangle x="230" y="140" width="160" height="26" as="alternateBounds" />
          </mxGeometry>
        </mxCell>
        <mxCell id="nrB4lIm2vFU0IHgTo4m3-22" value="Name" style="text;align=left;verticalAlign=top;spacingLeft=4;spacingRight=4;overflow=hidden;rotatable=0;points=[[0,0.5],[1,0.5]];portConstraint=eastwest;" vertex="1" parent="nrB4lIm2vFU0IHgTo4m3-21">
          <mxGeometry y="26" width="160" height="26" as="geometry" />
        </mxCell>
        <mxCell id="nrB4lIm2vFU0IHgTo4m3-23" value="flybehavior" style="text;align=left;verticalAlign=top;spacingLeft=4;spacingRight=4;overflow=hidden;rotatable=0;points=[[0,0.5],[1,0.5]];portConstraint=eastwest;rounded=0;shadow=0;html=0;" vertex="1" parent="nrB4lIm2vFU0IHgTo4m3-21">
          <mxGeometry y="52" width="160" height="26" as="geometry" />
        </mxCell>
        <mxCell id="nrB4lIm2vFU0IHgTo4m3-25" value="" style="line;html=1;strokeWidth=1;align=left;verticalAlign=middle;spacingTop=-1;spacingLeft=3;spacingRight=3;rotatable=0;labelPosition=right;points=[];portConstraint=eastwest;" vertex="1" parent="nrB4lIm2vFU0IHgTo4m3-21">
          <mxGeometry y="78" width="160" height="24" as="geometry" />
        </mxCell>
        <mxCell id="nrB4lIm2vFU0IHgTo4m3-35" value="fly()&lt;div&gt;quack()&lt;/div&gt;" style="text;html=1;align=center;verticalAlign=middle;resizable=0;points=[];autosize=1;strokeColor=none;fillColor=none;" vertex="1" parent="nrB4lIm2vFU0IHgTo4m3-21">
          <mxGeometry y="102" width="160" height="40" as="geometry" />
        </mxCell>
        <mxCell id="nrB4lIm2vFU0IHgTo4m3-26" value="Green" style="swimlane;fontStyle=0;align=center;verticalAlign=top;childLayout=stackLayout;horizontal=1;startSize=26;horizontalStack=0;resizeParent=1;resizeLast=0;collapsible=1;marginBottom=0;rounded=0;shadow=0;strokeWidth=1;" vertex="1" parent="WIyWlLk6GJQsqaUBKTNV-1">
          <mxGeometry x="25" y="1000" width="130" height="70" as="geometry">
            <mxRectangle x="130" y="380" width="160" height="26" as="alternateBounds" />
          </mxGeometry>
        </mxCell>
        <mxCell id="nrB4lIm2vFU0IHgTo4m3-27" value="" style="line;html=1;strokeWidth=1;align=left;verticalAlign=middle;spacingTop=-1;spacingLeft=3;spacingRight=3;rotatable=0;labelPosition=right;points=[];portConstraint=eastwest;" vertex="1" parent="nrB4lIm2vFU0IHgTo4m3-26">
          <mxGeometry y="26" width="130" height="8" as="geometry" />
        </mxCell>
        <mxCell id="nrB4lIm2vFU0IHgTo4m3-29" value="display()&#xa;quack()" style="text;align=left;verticalAlign=top;spacingLeft=4;spacingRight=4;overflow=hidden;rotatable=0;points=[[0,0.5],[1,0.5]];portConstraint=eastwest;" vertex="1" parent="nrB4lIm2vFU0IHgTo4m3-26">
          <mxGeometry y="34" width="130" height="36" as="geometry" />
        </mxCell>
        <mxCell id="nrB4lIm2vFU0IHgTo4m3-31" value="Red" style="swimlane;fontStyle=0;align=center;verticalAlign=top;childLayout=stackLayout;horizontal=1;startSize=26;horizontalStack=0;resizeParent=1;resizeLast=0;collapsible=1;marginBottom=0;rounded=0;shadow=0;strokeWidth=1;" vertex="1" parent="WIyWlLk6GJQsqaUBKTNV-1">
          <mxGeometry x="310" y="1000" width="130" height="74" as="geometry">
            <mxRectangle x="340" y="380" width="170" height="26" as="alternateBounds" />
          </mxGeometry>
        </mxCell>
        <mxCell id="nrB4lIm2vFU0IHgTo4m3-33" value="" style="line;html=1;strokeWidth=1;align=left;verticalAlign=middle;spacingTop=-1;spacingLeft=3;spacingRight=3;rotatable=0;labelPosition=right;points=[];portConstraint=eastwest;" vertex="1" parent="nrB4lIm2vFU0IHgTo4m3-31">
          <mxGeometry y="26" width="130" height="8" as="geometry" />
        </mxCell>
        <mxCell id="nrB4lIm2vFU0IHgTo4m3-36" value="&lt;span style=&quot;text-align: left;&quot;&gt;display()&lt;/span&gt;&lt;br style=&quot;padding: 0px; margin: 0px; text-align: left;&quot;&gt;&lt;span style=&quot;text-align: left;&quot;&gt;quack()&lt;/span&gt;" style="text;html=1;align=center;verticalAlign=middle;resizable=0;points=[];autosize=1;strokeColor=none;fillColor=none;" vertex="1" parent="nrB4lIm2vFU0IHgTo4m3-31">
          <mxGeometry y="34" width="130" height="40" as="geometry" />
        </mxCell>
        <mxCell id="nrB4lIm2vFU0IHgTo4m3-38" value="flyBehavior" style="swimlane;fontStyle=0;align=center;verticalAlign=top;childLayout=stackLayout;horizontal=1;startSize=26;horizontalStack=0;resizeParent=1;resizeLast=0;collapsible=1;marginBottom=0;rounded=0;shadow=0;strokeWidth=1;" vertex="1" parent="WIyWlLk6GJQsqaUBKTNV-1">
          <mxGeometry x="530" y="771" width="160" height="80" as="geometry">
            <mxRectangle x="130" y="380" width="160" height="26" as="alternateBounds" />
          </mxGeometry>
        </mxCell>
        <mxCell id="nrB4lIm2vFU0IHgTo4m3-39" value="" style="line;html=1;strokeWidth=1;align=left;verticalAlign=middle;spacingTop=-1;spacingLeft=3;spacingRight=3;rotatable=0;labelPosition=right;points=[];portConstraint=eastwest;" vertex="1" parent="nrB4lIm2vFU0IHgTo4m3-38">
          <mxGeometry y="26" width="160" height="8" as="geometry" />
        </mxCell>
        <mxCell id="nrB4lIm2vFU0IHgTo4m3-40" value="fly()" style="text;align=left;verticalAlign=top;spacingLeft=4;spacingRight=4;overflow=hidden;rotatable=0;points=[[0,0.5],[1,0.5]];portConstraint=eastwest;" vertex="1" parent="nrB4lIm2vFU0IHgTo4m3-38">
          <mxGeometry y="34" width="160" height="36" as="geometry" />
        </mxCell>
        <mxCell id="nrB4lIm2vFU0IHgTo4m3-41" value="" style="endArrow=block;endSize=10;endFill=0;shadow=0;strokeWidth=1;rounded=0;curved=0;edgeStyle=elbowEdgeStyle;elbow=vertical;" edge="1" parent="WIyWlLk6GJQsqaUBKTNV-1" source="nrB4lIm2vFU0IHgTo4m3-38" target="nrB4lIm2vFU0IHgTo4m3-21">
          <mxGeometry width="160" relative="1" as="geometry">
            <mxPoint x="590" y="730" as="sourcePoint" />
            <mxPoint x="380" y="802" as="targetPoint" />
            <Array as="points">
              <mxPoint x="410" y="820" />
            </Array>
          </mxGeometry>
        </mxCell>
        <mxCell id="nrB4lIm2vFU0IHgTo4m3-42" value="fly4wings" style="swimlane;fontStyle=0;align=center;verticalAlign=top;childLayout=stackLayout;horizontal=1;startSize=26;horizontalStack=0;resizeParent=1;resizeLast=0;collapsible=1;marginBottom=0;rounded=0;shadow=0;strokeWidth=1;" vertex="1" parent="WIyWlLk6GJQsqaUBKTNV-1">
          <mxGeometry x="640" y="920" width="160" height="80" as="geometry">
            <mxRectangle x="130" y="380" width="160" height="26" as="alternateBounds" />
          </mxGeometry>
        </mxCell>
        <mxCell id="nrB4lIm2vFU0IHgTo4m3-43" value="" style="line;html=1;strokeWidth=1;align=left;verticalAlign=middle;spacingTop=-1;spacingLeft=3;spacingRight=3;rotatable=0;labelPosition=right;points=[];portConstraint=eastwest;" vertex="1" parent="nrB4lIm2vFU0IHgTo4m3-42">
          <mxGeometry y="26" width="160" height="8" as="geometry" />
        </mxCell>
        <mxCell id="nrB4lIm2vFU0IHgTo4m3-44" value="fly()" style="text;align=left;verticalAlign=top;spacingLeft=4;spacingRight=4;overflow=hidden;rotatable=0;points=[[0,0.5],[1,0.5]];portConstraint=eastwest;" vertex="1" parent="nrB4lIm2vFU0IHgTo4m3-42">
          <mxGeometry y="34" width="160" height="36" as="geometry" />
        </mxCell>
        <mxCell id="nrB4lIm2vFU0IHgTo4m3-45" value="fly2Wings" style="swimlane;fontStyle=0;align=center;verticalAlign=top;childLayout=stackLayout;horizontal=1;startSize=26;horizontalStack=0;resizeParent=1;resizeLast=0;collapsible=1;marginBottom=0;rounded=0;shadow=0;strokeWidth=1;" vertex="1" parent="WIyWlLk6GJQsqaUBKTNV-1">
          <mxGeometry x="455" y="920" width="160" height="80" as="geometry">
            <mxRectangle x="130" y="380" width="160" height="26" as="alternateBounds" />
          </mxGeometry>
        </mxCell>
        <mxCell id="nrB4lIm2vFU0IHgTo4m3-46" value="" style="line;html=1;strokeWidth=1;align=left;verticalAlign=middle;spacingTop=-1;spacingLeft=3;spacingRight=3;rotatable=0;labelPosition=right;points=[];portConstraint=eastwest;" vertex="1" parent="nrB4lIm2vFU0IHgTo4m3-45">
          <mxGeometry y="26" width="160" height="8" as="geometry" />
        </mxCell>
        <mxCell id="nrB4lIm2vFU0IHgTo4m3-47" value="fly()" style="text;align=left;verticalAlign=top;spacingLeft=4;spacingRight=4;overflow=hidden;rotatable=0;points=[[0,0.5],[1,0.5]];portConstraint=eastwest;" vertex="1" parent="nrB4lIm2vFU0IHgTo4m3-45">
          <mxGeometry y="34" width="160" height="36" as="geometry" />
        </mxCell>
        <mxCell id="nrB4lIm2vFU0IHgTo4m3-48" value="Blue" style="swimlane;fontStyle=0;align=center;verticalAlign=top;childLayout=stackLayout;horizontal=1;startSize=26;horizontalStack=0;resizeParent=1;resizeLast=0;collapsible=1;marginBottom=0;rounded=0;shadow=0;strokeWidth=1;" vertex="1" parent="WIyWlLk6GJQsqaUBKTNV-1">
          <mxGeometry x="170" y="1000" width="130" height="70" as="geometry">
            <mxRectangle x="130" y="380" width="160" height="26" as="alternateBounds" />
          </mxGeometry>
        </mxCell>
        <mxCell id="nrB4lIm2vFU0IHgTo4m3-49" value="" style="line;html=1;strokeWidth=1;align=left;verticalAlign=middle;spacingTop=-1;spacingLeft=3;spacingRight=3;rotatable=0;labelPosition=right;points=[];portConstraint=eastwest;" vertex="1" parent="nrB4lIm2vFU0IHgTo4m3-48">
          <mxGeometry y="26" width="130" height="8" as="geometry" />
        </mxCell>
        <mxCell id="nrB4lIm2vFU0IHgTo4m3-50" value="display()&#xa;quack()" style="text;align=left;verticalAlign=top;spacingLeft=4;spacingRight=4;overflow=hidden;rotatable=0;points=[[0,0.5],[1,0.5]];portConstraint=eastwest;" vertex="1" parent="nrB4lIm2vFU0IHgTo4m3-48">
          <mxGeometry y="34" width="130" height="36" as="geometry" />
        </mxCell>
        <mxCell id="nrB4lIm2vFU0IHgTo4m3-51" value="" style="endArrow=classic;html=1;rounded=0;" edge="1" parent="WIyWlLk6GJQsqaUBKTNV-1" source="nrB4lIm2vFU0IHgTo4m3-48" target="nrB4lIm2vFU0IHgTo4m3-21">
          <mxGeometry relative="1" as="geometry">
            <mxPoint x="170" y="959.5" as="sourcePoint" />
            <mxPoint x="270" y="959.5" as="targetPoint" />
          </mxGeometry>
        </mxCell>
        <mxCell id="nrB4lIm2vFU0IHgTo4m3-52" value="Label" style="edgeLabel;resizable=0;html=1;;align=center;verticalAlign=middle;" connectable="0" vertex="1" parent="nrB4lIm2vFU0IHgTo4m3-51">
          <mxGeometry relative="1" as="geometry" />
        </mxCell>
        <mxCell id="nrB4lIm2vFU0IHgTo4m3-53" value="extend" style="edgeLabel;html=1;align=center;verticalAlign=middle;resizable=0;points=[];" vertex="1" connectable="0" parent="nrB4lIm2vFU0IHgTo4m3-51">
          <mxGeometry x="-0.0067" y="1" relative="1" as="geometry">
            <mxPoint as="offset" />
          </mxGeometry>
        </mxCell>
        <mxCell id="nrB4lIm2vFU0IHgTo4m3-54" value="" style="endArrow=classic;html=1;rounded=0;" edge="1" parent="WIyWlLk6GJQsqaUBKTNV-1" source="nrB4lIm2vFU0IHgTo4m3-26" target="nrB4lIm2vFU0IHgTo4m3-21">
          <mxGeometry relative="1" as="geometry">
            <mxPoint x="255" y="1010" as="sourcePoint" />
            <mxPoint x="289" y="892" as="targetPoint" />
          </mxGeometry>
        </mxCell>
        <mxCell id="nrB4lIm2vFU0IHgTo4m3-55" value="Label" style="edgeLabel;resizable=0;html=1;;align=center;verticalAlign=middle;" connectable="0" vertex="1" parent="nrB4lIm2vFU0IHgTo4m3-54">
          <mxGeometry relative="1" as="geometry" />
        </mxCell>
        <mxCell id="nrB4lIm2vFU0IHgTo4m3-56" value="extend" style="edgeLabel;html=1;align=center;verticalAlign=middle;resizable=0;points=[];" vertex="1" connectable="0" parent="nrB4lIm2vFU0IHgTo4m3-54">
          <mxGeometry x="-0.0067" y="1" relative="1" as="geometry">
            <mxPoint as="offset" />
          </mxGeometry>
        </mxCell>
        <mxCell id="nrB4lIm2vFU0IHgTo4m3-57" value="" style="endArrow=classic;html=1;rounded=0;" edge="1" parent="WIyWlLk6GJQsqaUBKTNV-1" source="nrB4lIm2vFU0IHgTo4m3-31" target="nrB4lIm2vFU0IHgTo4m3-21">
          <mxGeometry relative="1" as="geometry">
            <mxPoint x="330" y="1000" as="sourcePoint" />
            <mxPoint x="364" y="882" as="targetPoint" />
          </mxGeometry>
        </mxCell>
        <mxCell id="nrB4lIm2vFU0IHgTo4m3-58" value="Label" style="edgeLabel;resizable=0;html=1;;align=center;verticalAlign=middle;" connectable="0" vertex="1" parent="nrB4lIm2vFU0IHgTo4m3-57">
          <mxGeometry relative="1" as="geometry" />
        </mxCell>
        <mxCell id="nrB4lIm2vFU0IHgTo4m3-59" value="extend" style="edgeLabel;html=1;align=center;verticalAlign=middle;resizable=0;points=[];" vertex="1" connectable="0" parent="nrB4lIm2vFU0IHgTo4m3-57">
          <mxGeometry x="-0.0067" y="1" relative="1" as="geometry">
            <mxPoint as="offset" />
          </mxGeometry>
        </mxCell>
        <mxCell id="nrB4lIm2vFU0IHgTo4m3-60" value="" style="endArrow=classic;html=1;rounded=0;" edge="1" parent="WIyWlLk6GJQsqaUBKTNV-1" source="nrB4lIm2vFU0IHgTo4m3-45" target="nrB4lIm2vFU0IHgTo4m3-38">
          <mxGeometry relative="1" as="geometry">
            <mxPoint x="569" y="938" as="sourcePoint" />
            <mxPoint x="530" y="820" as="targetPoint" />
          </mxGeometry>
        </mxCell>
        <mxCell id="nrB4lIm2vFU0IHgTo4m3-61" value="Label" style="edgeLabel;resizable=0;html=1;;align=center;verticalAlign=middle;" connectable="0" vertex="1" parent="nrB4lIm2vFU0IHgTo4m3-60">
          <mxGeometry relative="1" as="geometry" />
        </mxCell>
        <mxCell id="nrB4lIm2vFU0IHgTo4m3-62" value="extend" style="edgeLabel;html=1;align=center;verticalAlign=middle;resizable=0;points=[];" vertex="1" connectable="0" parent="nrB4lIm2vFU0IHgTo4m3-60">
          <mxGeometry x="-0.0067" y="1" relative="1" as="geometry">
            <mxPoint as="offset" />
          </mxGeometry>
        </mxCell>
        <mxCell id="nrB4lIm2vFU0IHgTo4m3-63" value="" style="endArrow=classic;html=1;rounded=0;" edge="1" parent="WIyWlLk6GJQsqaUBKTNV-1" source="nrB4lIm2vFU0IHgTo4m3-42" target="nrB4lIm2vFU0IHgTo4m3-38">
          <mxGeometry relative="1" as="geometry">
            <mxPoint x="565" y="930" as="sourcePoint" />
            <mxPoint x="600" y="861" as="targetPoint" />
          </mxGeometry>
        </mxCell>
        <mxCell id="nrB4lIm2vFU0IHgTo4m3-64" value="Label" style="edgeLabel;resizable=0;html=1;;align=center;verticalAlign=middle;" connectable="0" vertex="1" parent="nrB4lIm2vFU0IHgTo4m3-63">
          <mxGeometry relative="1" as="geometry" />
        </mxCell>
        <mxCell id="nrB4lIm2vFU0IHgTo4m3-65" value="extend" style="edgeLabel;html=1;align=center;verticalAlign=middle;resizable=0;points=[];" vertex="1" connectable="0" parent="nrB4lIm2vFU0IHgTo4m3-63">
          <mxGeometry x="-0.0067" y="1" relative="1" as="geometry">
            <mxPoint as="offset" />
          </mxGeometry>
        </mxCell>
        <mxCell id="nrB4lIm2vFU0IHgTo4m3-66" value="Magasin" style="rounded=0;whiteSpace=wrap;html=1;" vertex="1" parent="WIyWlLk6GJQsqaUBKTNV-1">
          <mxGeometry x="170" y="1180" width="110" height="50" as="geometry" />
        </mxCell>
        <mxCell id="nrB4lIm2vFU0IHgTo4m3-68" value="Editeur" style="rounded=0;whiteSpace=wrap;html=1;" vertex="1" parent="WIyWlLk6GJQsqaUBKTNV-1">
          <mxGeometry x="370" y="1420" width="110" height="50" as="geometry" />
        </mxCell>
        <mxCell id="nrB4lIm2vFU0IHgTo4m3-69" value="Jeux de soiciété" style="rounded=0;whiteSpace=wrap;html=1;" vertex="1" parent="WIyWlLk6GJQsqaUBKTNV-1">
          <mxGeometry x="370" y="1180" width="110" height="50" as="geometry" />
        </mxCell>
        <mxCell id="nrB4lIm2vFU0IHgTo4m3-73" value="0/n" style="endArrow=classic;html=1;rounded=0;" edge="1" parent="WIyWlLk6GJQsqaUBKTNV-1" source="nrB4lIm2vFU0IHgTo4m3-66" target="nrB4lIm2vFU0IHgTo4m3-69">
          <mxGeometry relative="1" as="geometry">
            <mxPoint x="280" y="1204.5" as="sourcePoint" />
            <mxPoint x="370" y="1205" as="targetPoint" />
          </mxGeometry>
        </mxCell>
        <mxCell id="nrB4lIm2vFU0IHgTo4m3-79" value="Client" style="rounded=0;whiteSpace=wrap;html=1;" vertex="1" parent="WIyWlLk6GJQsqaUBKTNV-1">
          <mxGeometry x="600" y="1310" width="110" height="50" as="geometry" />
        </mxCell>
        <mxCell id="nrB4lIm2vFU0IHgTo4m3-83" value="0/n" style="endArrow=classic;html=1;rounded=0;" edge="1" parent="WIyWlLk6GJQsqaUBKTNV-1" source="nrB4lIm2vFU0IHgTo4m3-79">
          <mxGeometry relative="1" as="geometry">
            <mxPoint x="250" y="1390" as="sourcePoint" />
            <mxPoint x="655" y="1230" as="targetPoint" />
          </mxGeometry>
        </mxCell>
        <mxCell id="nrB4lIm2vFU0IHgTo4m3-84" value="" style="ellipse;whiteSpace=wrap;html=1;" vertex="1" parent="WIyWlLk6GJQsqaUBKTNV-1">
          <mxGeometry x="530" y="1410" width="100" height="50" as="geometry" />
        </mxCell>
        <mxCell id="nrB4lIm2vFU0IHgTo4m3-85" value="Editer" style="swimlane;whiteSpace=wrap;html=1;startSize=20;" vertex="1" parent="WIyWlLk6GJQsqaUBKTNV-1">
          <mxGeometry x="355" y="1280" width="140" height="50" as="geometry" />
        </mxCell>
        <mxCell id="nrB4lIm2vFU0IHgTo4m3-86" style="edgeStyle=orthogonalEdgeStyle;rounded=0;orthogonalLoop=1;jettySize=auto;html=1;exitX=0.5;exitY=1;exitDx=0;exitDy=0;" edge="1" parent="WIyWlLk6GJQsqaUBKTNV-1" source="nrB4lIm2vFU0IHgTo4m3-85" target="nrB4lIm2vFU0IHgTo4m3-85">
          <mxGeometry relative="1" as="geometry" />
        </mxCell>
        <mxCell id="nrB4lIm2vFU0IHgTo4m3-88" value="1,1" style="endArrow=classic;html=1;rounded=0;" edge="1" parent="WIyWlLk6GJQsqaUBKTNV-1" source="nrB4lIm2vFU0IHgTo4m3-68" target="nrB4lIm2vFU0IHgTo4m3-85">
          <mxGeometry relative="1" as="geometry">
            <mxPoint x="424.5" y="1370" as="sourcePoint" />
            <mxPoint x="420" y="1320" as="targetPoint" />
          </mxGeometry>
        </mxCell>
        <mxCell id="nrB4lIm2vFU0IHgTo4m3-89" value="0,n" style="endArrow=classic;html=1;rounded=0;" edge="1" parent="WIyWlLk6GJQsqaUBKTNV-1" source="nrB4lIm2vFU0IHgTo4m3-69" target="nrB4lIm2vFU0IHgTo4m3-85">
          <mxGeometry relative="1" as="geometry">
            <mxPoint x="435" y="1430" as="sourcePoint" />
            <mxPoint x="435" y="1340" as="targetPoint" />
          </mxGeometry>
        </mxCell>
        <mxCell id="nrB4lIm2vFU0IHgTo4m3-90" value="Commande" style="swimlane;whiteSpace=wrap;html=1;startSize=20;" vertex="1" parent="WIyWlLk6GJQsqaUBKTNV-1">
          <mxGeometry x="585" y="1180" width="140" height="50" as="geometry" />
        </mxCell>
        <mxCell id="nrB4lIm2vFU0IHgTo4m3-91" value="0,1" style="endArrow=classic;html=1;rounded=0;" edge="1" parent="WIyWlLk6GJQsqaUBKTNV-1" target="nrB4lIm2vFU0IHgTo4m3-90">
          <mxGeometry relative="1" as="geometry">
            <mxPoint x="480" y="1204.5" as="sourcePoint" />
            <mxPoint x="570" y="1205" as="targetPoint" />
          </mxGeometry>
        </mxCell>
      </root>
    </mxGraphModel>
  </diagram>
</mxfile>
